<?xml version="1.0" standalone="no"?>
<!DOCTYPE svg PUBLIC "-//W3C//DTD SVG 20010904//EN"
 "http://www.w3.org/TR/2001/REC-SVG-20010904/DTD/svg10.dtd">
<svg version="1.0" xmlns="http://www.w3.org/2000/svg"
 width="640.000000pt" height="640.000000pt" viewBox="0 0 640.000000 640.000000"
 preserveAspectRatio="xMidYMid meet">
<metadata>
Created by potrace 1.11, written by Peter Selinger 2001-2013
</metadata>
<g transform="translate(0.000000,640.000000) scale(0.100000,-0.100000)"
fill="#000000" stroke="none">
<path d="M3737 5584 c-1 -1 -45 -4 -97 -8 -52 -4 -104 -8 -115 -10 -130 -20
-285 -63 -384 -107 -118 -53 -294 -154 -337 -194 -6 -5 -29 -23 -50 -40 -95
-73 -208 -191 -322 -340 -24 -30 -114 -189 -141 -247 l-31 -68 -28 24 c-149
133 -390 195 -632 164 -287 -37 -559 -277 -652 -573 -33 -107 -36 -323 -6
-430 6 -22 11 -43 10 -46 0 -3 20 -49 46 -101 l47 -94 -90 -28 c-107 -33 -297
-124 -325 -156 -3 -3 -23 -18 -45 -34 -159 -117 -321 -331 -399 -529 -90 -226
-107 -518 -45 -762 25 -96 105 -282 142 -330 4 -5 29 -39 55 -75 52 -72 160
-184 237 -246 185 -148 405 -234 640 -251 118 -9 3617 -8 3715 0 102 10 169
22 280 52 131 35 366 162 474 255 141 121 278 283 354 418 67 118 143 327 158
432 25 182 25 409 -1 523 -3 12 -7 33 -10 47 -2 14 -9 43 -15 65 -6 22 -12 47
-15 57 -17 74 -153 347 -177 356 -4 2 -8 8 -8 14 0 9 -24 42 -85 118 -100 123
-264 256 -425 344 -36 19 -64 41 -62 48 5 17 2 256 -2 288 -3 14 -7 48 -10 76
-7 59 -13 88 -21 115 -4 10 -8 29 -9 42 -2 12 -6 29 -9 37 -3 8 -19 58 -37
110 -17 52 -38 105 -46 118 -8 12 -12 22 -10 22 13 0 -118 218 -171 285 -167
212 -352 369 -573 487 -47 25 -89 47 -95 48 -13 3 -31 10 -87 31 -99 38 -266
75 -388 85 -69 6 -199 11 -203 8z m308 -868 c52 -8 175 -50 211 -73 11 -7 24
-10 27 -6 4 3 7 1 7 -5 0 -6 13 -18 29 -27 16 -8 57 -42 91 -74 l62 -60 -17
-78 c-10 -43 -19 -87 -21 -98 -1 -11 -14 -76 -29 -145 -15 -69 -28 -134 -29
-145 -3 -20 -15 -77 -41 -190 -8 -33 -16 -71 -19 -85 -5 -26 -40 -203 -50
-255 -3 -16 -9 -41 -12 -55 -41 -186 -95 -448 -99 -481 -3 -23 -8 -45 -10 -49
-2 -4 -7 -22 -10 -41 -3 -19 -11 -54 -16 -79 -6 -25 -12 -54 -15 -65 -5 -29
-21 -100 -29 -137 -3 -13 -17 -84 -31 -158 -14 -74 -29 -141 -33 -149 -6 -10
-17 -2 -42 30 -82 105 -229 233 -277 243 -9 1 -29 8 -43 14 -73 30 -242 33
-383 6 -53 -10 -96 -21 -96 -25 0 -4 -11 -6 -25 -4 -14 1 -25 -2 -25 -6 0 -5
-8 -9 -18 -9 -10 0 -76 -23 -147 -51 -72 -28 -143 -56 -160 -61 -16 -6 -39
-15 -50 -19 -38 -16 -80 -30 -84 -29 -2 1 -7 -2 -10 -7 -9 -14 -317 -125 -382
-138 -8 -2 -38 -10 -65 -18 -27 -8 -55 -12 -61 -10 -7 3 -13 1 -13 -4 0 -15
-261 -23 -330 -10 -50 10 -174 49 -180 57 -3 4 -15 10 -27 14 -38 12 -125 76
-189 138 -58 56 -61 62 -54 92 5 17 11 49 15 71 3 22 10 56 15 75 4 19 11 53
14 75 6 40 12 78 21 125 3 14 8 36 10 50 3 14 12 70 21 125 8 55 21 134 29
175 15 79 21 113 31 170 7 42 12 63 14 70 1 3 2 8 1 13 -1 4 3 26 8 50 15 64
20 91 42 232 23 145 25 157 34 200 6 28 52 277 59 320 2 11 6 34 9 50 3 17 8
46 11 65 14 108 19 136 25 147 4 9 31 -11 78 -56 133 -128 264 -198 388 -205
17 -1 36 -5 43 -9 7 -5 12 -4 12 2 0 7 21 10 57 7 50 -3 221 23 263 41 8 3 17
7 20 8 29 7 146 49 150 54 5 5 25 10 58 13 6 1 12 5 12 10 0 4 5 8 10 8 6 0
27 7 48 17 20 9 39 17 42 18 19 6 221 95 270 118 25 11 47 21 50 22 5 2 27 11
105 45 43 19 242 88 270 95 6 1 17 5 25 8 14 6 92 25 135 33 110 20 200 23
300 10z m828 -61 c70 -37 87 -101 58 -211 -5 -22 -13 -52 -16 -69 -24 -123
-34 -173 -39 -195 -4 -14 -18 -86 -31 -160 -14 -74 -45 -229 -70 -345 -24
-115 -51 -253 -60 -305 -9 -52 -18 -97 -20 -100 -2 -3 -6 -21 -9 -40 -3 -19
-19 -100 -36 -180 -17 -80 -38 -183 -46 -230 -8 -47 -17 -92 -19 -100 -2 -8
-7 -28 -10 -45 -3 -16 -21 -104 -41 -195 -19 -91 -37 -178 -39 -195 -4 -39
-25 -146 -32 -165 -3 -8 -7 -24 -9 -35 -1 -11 -19 -101 -39 -200 -20 -99 -38
-191 -40 -205 -3 -21 -33 -164 -51 -245 -2 -11 -7 -33 -10 -50 -12 -71 -26
-106 -55 -134 -31 -31 -86 -48 -116 -36 -10 3 -19 5 -20 3 -3 -6 -55 47 -65
66 -20 38 -19 83 7 201 14 66 27 134 30 150 2 17 7 41 10 55 11 45 14 63 45
225 28 145 37 190 44 220 2 6 6 33 11 60 4 28 10 54 13 60 3 5 7 16 8 25 2 21
7 45 71 360 30 151 64 320 74 375 16 86 53 268 64 315 6 26 82 409 101 510 3
14 7 32 9 40 2 8 7 29 10 45 3 17 16 84 30 150 14 66 28 134 31 150 2 17 11
62 19 100 8 39 17 81 19 95 2 14 12 58 20 98 9 40 16 75 16 76 0 12 45 50 77
66 44 22 58 21 106 -5z"/>
<path d="M3899 4646 c-2 -2 -29 -7 -59 -10 -63 -8 -67 -10 -73 -51 -3 -16 -17
-88 -32 -160 -15 -71 -29 -139 -31 -150 -2 -11 -11 -56 -20 -100 -9 -44 -18
-87 -19 -95 -2 -8 -4 -17 -5 -20 -1 -3 -3 -9 -4 -15 -12 -73 -15 -76 -111 -91
-35 -6 -191 -51 -220 -64 -11 -4 -94 -38 -185 -75 -91 -37 -170 -69 -176 -71
-7 -3 -7 13 2 53 11 49 26 119 50 243 3 14 7 32 9 40 3 8 7 38 10 65 4 28 11
68 16 90 5 22 12 55 15 74 2 19 7 38 10 42 14 23 -11 27 -54 7 -26 -11 -69
-31 -97 -43 -27 -13 -61 -26 -75 -30 -14 -4 -33 -14 -42 -23 -10 -8 -18 -12
-18 -9 0 4 -24 -3 -52 -14 -29 -12 -60 -22 -68 -24 -8 -2 -41 -13 -72 -24 -32
-11 -78 -23 -103 -26 -25 -4 -45 -10 -45 -14 0 -3 -14 -6 -31 -7 -45 -2 -49
-7 -64 -99 -9 -50 -24 -138 -30 -175 -3 -19 -11 -55 -16 -80 -6 -25 -13 -58
-15 -75 -3 -16 -12 -70 -22 -120 l-17 -90 -110 0 c-61 1 -123 4 -140 7 -53 12
-127 38 -141 49 -8 6 -14 9 -14 5 0 -10 -79 42 -132 85 -26 22 -51 39 -56 39
-9 0 -14 -19 -28 -97 -2 -13 -6 -35 -9 -50 -3 -16 -16 -93 -31 -173 -14 -80
-27 -156 -30 -170 -2 -14 -7 -41 -10 -60 -3 -19 -7 -42 -10 -51 -7 -25 109
-123 194 -164 94 -45 194 -66 317 -67 39 0 73 -2 76 -4 7 -4 -6 -86 -31 -204
-5 -25 -14 -72 -20 -105 -5 -33 -12 -69 -14 -80 -27 -136 -36 -200 -32 -210 3
-8 19 -11 48 -8 68 6 147 23 154 34 3 5 10 7 15 4 14 -9 351 110 439 154 17 9
38 83 55 196 3 17 7 41 10 55 3 14 7 34 9 45 2 11 11 54 19 95 9 41 21 113 28
159 l12 83 71 33 c98 44 129 58 141 60 6 2 55 20 110 40 122 46 221 75 229 67
3 -3 6 -1 6 4 0 5 8 10 18 11 9 0 36 3 60 7 36 5 42 4 42 -11 0 -26 -26 -162
-61 -323 -12 -52 -22 -106 -24 -120 -1 -14 -7 -43 -13 -65 -6 -22 -13 -58 -17
-80 l-5 -40 87 0 c53 1 118 -6 163 -18 41 -10 81 -19 88 -19 6 -1 12 -5 12
-10 0 -4 6 -8 13 -8 19 0 127 -74 176 -121 41 -40 45 -41 53 -24 6 16 78 365
104 505 3 14 11 49 19 77 l13 53 -36 38 c-124 128 -264 183 -472 186 -68 1
-75 3 -74 21 1 26 10 76 17 95 3 8 8 33 11 55 2 22 7 47 10 55 3 8 8 29 11 45
15 86 35 192 39 210 2 11 10 49 17 85 7 36 18 71 25 79 13 15 134 19 219 6 28
-4 58 -7 67 -8 9 -1 14 -5 12 -9 -3 -4 5 -8 18 -8 31 0 120 -46 168 -88 22
-18 40 -31 40 -27 0 4 12 -7 26 -24 14 -17 29 -31 34 -31 7 0 25 81 35 155 2
11 17 85 35 165 17 80 33 154 35 165 2 11 11 55 20 99 9 43 14 84 12 91 -7 16
-144 117 -187 136 -56 26 -140 47 -210 55 -36 3 -68 8 -71 10 -3 2 -8 2 -10 0z
m-959 -935 c0 -4 -5 -33 -10 -62 -6 -30 -13 -70 -16 -89 -3 -19 -7 -43 -10
-52 -3 -10 -8 -30 -10 -45 -3 -16 -12 -62 -20 -103 -16 -78 -18 -89 -35 -180
-5 -30 -12 -65 -14 -76 -4 -16 -26 -30 -87 -55 -46 -19 -85 -34 -88 -35 -3 0
-14 -4 -25 -9 -113 -45 -172 -66 -240 -85 -112 -30 -116 -31 -155 -35 -19 -2
-46 -7 -59 -11 -26 -8 -26 -6 -8 81 2 11 7 36 11 55 3 19 8 46 11 60 3 14 7
39 10 55 2 17 13 75 24 130 10 55 24 133 31 173 6 39 15 72 18 72 4 1 27 5 52
11 25 5 60 12 79 14 18 3 43 11 55 17 11 6 21 10 21 9 0 -9 107 25 175 55 3 1
14 5 25 9 11 3 72 28 135 55 126 53 130 54 130 41z"/>
</g>
</svg>
